<svg xmlns="http://www.w3.org/2000/svg" width="200" height="226" fill="none"><path fill="#012F34" fill-rule="evenodd" d="M200 100.5c0-55.228-44.772-100-100-100S0 45.272 0 100.5s44.772 100 100 100 100-44.772 100-100Zm-67 0c0-18.225-14.775-33-33-33s-33 14.775-33 33 14.775 33 33 33 33-14.775 33-33Z" clip-rule="evenodd"/><path fill="#79C8C7" d="M43 .5v43H0V.5z"/><path fill="#F67E7E" fill-rule="evenodd" d="M200 124.987c0-55.229-44.772-100-100-100S0 69.758 0 124.987c0 55.228 44.772 100 100 100s100-44.772 100-100Zm-67 0c0-18.226-14.775-33-33-33s-33 14.774-33 33c0 18.225 14.775 33 33 33s33-14.775 33-33Z" clip-rule="evenodd"/></svg>