<svg width="100" height="226" fill="none" xmlns="http://www.w3.org/2000/svg">
  <path fill-rule="evenodd" clip-rule="evenodd" d="M200.5 100.5c0-55.2285-44.772-100-100-100C45.2715.5.5 45.2715.5 100.5c0 55.228 44.7715 100 100 100 55.228 0 100-44.772 100-100Zm-67 0c0-18.2254-14.775-33-33-33-18.2254 0-33 14.7746-33 33 0 18.225 14.7746 33 33 33 18.225 0 33-14.775 33-33Z" fill="#012F34"/>
  <path fill="#79C8C7" d="M43.5.5v43H.5V.5z"/>
  <path fill-rule="evenodd" clip-rule="evenodd" d="M200.5 124.987c0-55.229-44.772-100.0005-100-100.0005-55.2285 0-100 44.7715-100 100.0005 0 55.228 44.7715 100 100 100 55.228 0 100-44.772 100-100Zm-67 0c0-18.226-14.775-33.0005-33-33.0005-18.2254 0-33 14.7745-33 33.0005 0 18.225 14.7746 33 33 33 18.225 0 33-14.775 33-33Z" fill="#F67E7E"/>
</svg>